<svg height='300px' width='300px'  fill="#FFF" xmlns:dc="http://purl.org/dc/elements/1.1/" xmlns:rdf="http://www.w3.org/1999/02/22-rdf-syntax-ns#" xmlns:svg="http://www.w3.org/2000/svg" xmlns="http://www.w3.org/2000/svg"  viewBox="0 0 333.33269 333.33269" version="1.1" x="0px" y="0px"><path d="m 70.833195,154.16636 c 0,20.8333 0,62.49988 41.666595,62.49988 20.83329,0 29.16661,-24.99995 33.33327,-33.33326 -4.16666,-8.33332 -41.6666,-45.83325 -49.999913,-49.99991 -4.166658,0 -24.999952,0 -24.999952,20.83329 z m 149.999715,62.49988 c 41.66659,0 41.66659,-41.66658 41.66659,-62.49988 0,-20.83329 -20.83329,-20.83329 -24.99995,-20.83329 -8.33332,4.16666 -45.83325,41.66659 -49.99991,49.99991 4.16666,8.33331 12.49998,33.33326 33.33327,33.33326 z m -49.83324,20.8333 c 0.16667,4.16666 16.49997,4.16666 16.49997,0 0,-4.16666 -12.49997,-37.49993 -16.66663,-37.49993 -4.16666,0 0,33.33327 0.16666,37.49993 z m -8.49998,-37.49993 c -4.16666,0 -16.66663,33.33327 -16.66663,37.49993 0,4.16666 16.29996,4.16666 16.4833,0 0.18333,-4.16666 4.34999,-37.49993 0.18333,-37.49993 z m 8.33332,79.16652 c -0.83333,-0.83334 -7.49999,-0.83334 -8.33332,0 -0.83333,0.83333 -0.0583,37.49992 -0.0583,37.49992 l -37.47493,0 c 0,0 5.03332,-36.66659 4.19999,-37.49992 -0.83333,-0.83334 -7.49998,-0.83334 -8.33332,0 -0.83333,0.83333 -4.16665,37.49992 -4.16665,37.49992 l -37.499937,0 4.166658,-58.33322 c -4.166658,8.33332 -41.666587,0 -41.666587,-20.83329 0,-20.8333 20.833294,-20.8333 0,-62.49988 -20.833293,-41.66659 0,-104.166467 20.833294,-124.999761 20.833293,-20.833291 74.999862,-33.333267 104.166472,-33.333267 29.16661,0 83.33317,12.499976 104.16647,33.333267 20.83329,20.833294 41.66658,83.333171 20.83329,124.999761 -20.83329,41.66658 0,41.66658 0,62.49988 0,20.83329 -37.49993,29.16661 -41.66659,20.83329 l 4.16666,58.33322 -37.49993,0 c 0,0 -3.33332,-36.66659 -4.16665,-37.49992 -0.83334,-0.83334 -7.49999,-0.83334 -8.33332,0 -0.83333,0.83333 4.12499,37.49992 4.12499,37.49992 l -37.50826,0 c 0,0 0.88333,-36.66659 0.05,-37.49992 z" style="" fill="#FFF" fill-opacity="1" stroke="none"></path></svg>